<svg width="290" height="231" viewBox="0 0 290 231" fill="none" xmlns="http://www.w3.org/2000/svg">
<g clip-path="url(#clip0)">
<path opacity="0.1" d="M93.5804 9.52114C102.485 1.60781 116.466 0.000911057 129.189 0.624053C169.157 2.60599 205.234 21.8455 236.44 43.6093C247.737 51.488 258.86 59.9783 266.194 70.8285C281.121 92.9183 276.695 123.516 255.935 141.711C248.874 147.902 240.314 152.648 231.522 156.857C215.901 164.337 199.032 170.341 181.296 172.052C168.645 173.269 155.838 172.279 143.266 170.577C108.129 165.829 73.6483 155.313 44.7454 137.346C32.0688 129.462 20.1182 119.661 14.8937 106.904C9.66912 94.1473 13.0133 77.9975 25.9706 70.439C31.3253 67.3176 37.7273 65.9068 43.9933 64.5827C53.2187 62.6325 62.5917 60.7111 70.9146 56.7501C79.5122 52.6564 89.6952 44.7402 87.9826 35.6902C86.1427 25.9623 84.6963 17.4143 93.5804 9.52114Z" fill="#1D7BE9"/>
<path opacity="0.1" d="M51.0172 46.9183C56.0499 46.9183 60.1298 42.8497 60.1298 37.8308C60.1298 32.8119 56.0499 28.7433 51.0172 28.7433C45.9844 28.7433 41.9045 32.8119 41.9045 37.8308C41.9045 42.8497 45.9844 46.9183 51.0172 46.9183Z" fill="#1D7BE9"/>
<path opacity="0.1" d="M31.927 21.8195C35.0425 21.8195 37.5682 19.3009 37.5682 16.1939C37.5682 13.087 35.0425 10.5684 31.927 10.5684C28.8115 10.5684 26.2859 13.087 26.2859 16.1939C26.2859 19.3009 28.8115 21.8195 31.927 21.8195Z" fill="#1D7BE9"/>
<path opacity="0.1" d="M268.415 36.9653C270.332 36.9653 271.887 35.4154 271.887 33.5034C271.887 31.5915 270.332 30.0415 268.415 30.0415C266.498 30.0415 264.944 31.5915 264.944 33.5034C264.944 35.4154 266.498 36.9653 268.415 36.9653Z" fill="#1D7BE9"/>
<path opacity="0.1" d="M200.244 230.5C213.703 230.5 224.614 229.415 224.614 228.077C224.614 226.738 213.703 225.653 200.244 225.653C186.785 225.653 175.875 226.738 175.875 228.077C175.875 229.415 186.785 230.5 200.244 230.5Z" fill="#1D7BE9"/>
<path d="M62.5656 141.085L62.4586 146.84L61.6023 193.492L54.2717 210.611L29.0081 210.9V143.736L55.3739 141.653L62.5656 141.085Z" fill="#5F5D7E"/>
<path opacity="0.1" d="M62.5656 141.085L62.4586 146.84L61.6023 193.492L54.2717 210.611L29.0081 210.9V143.736L55.3739 141.653L62.5656 141.085Z" fill="black"/>
<path d="M62.5657 141.085L62.4586 146.84L61.6023 193.492L54.2717 210.611L56.2013 146.95L56.1955 146.91L55.3739 141.653L62.5657 141.085Z" fill="#5F5D7E"/>
<path opacity="0.1" d="M55.3739 141.653L62.5656 141.085L62.4586 146.84L56.1955 146.91L29.0081 147.212V143.736L55.3739 141.653Z" fill="black"/>
<path d="M289.658 143.736V210.513H283.776L260.246 193.397V141.852L281.268 139.882L282.559 140.473L283.776 141.033L289.658 143.736Z" fill="#5F5D7E"/>
<path opacity="0.1" d="M289.658 140.473H283.776V210.513H289.658V140.473Z" fill="black"/>
<path opacity="0.1" d="M289.658 140.473V144.313L283.776 144.379L260.246 144.639V141.852L281.268 139.882L282.559 140.473L283.776 141.033V140.473H289.658Z" fill="black"/>
<path d="M289.658 138.295V143.736L0.657715 146.95V140.026L27.8509 134.545L264.49 132.814L289.658 138.295Z" fill="#5F5D7E"/>
<path opacity="0.1" d="M289.658 138.295V143.736L0.657715 146.95V140.026L289.658 138.295Z" fill="black"/>
<path d="M201.019 56.7472H112.995C109.349 56.7472 106.393 59.6947 106.393 63.3306V128.544C106.393 132.18 109.349 135.128 112.995 135.128H201.019C204.665 135.128 207.621 132.18 207.621 128.544V63.3306C207.621 59.6947 204.665 56.7472 201.019 56.7472Z" fill="#474157"/>
<path d="M199.625 63.8182H114.539V127.757H199.625V63.8182Z" fill="#EDEDF4"/>
<path d="M111.218 97.1764C111.988 97.1764 112.613 96.5539 112.613 95.7859C112.613 95.018 111.988 94.3954 111.218 94.3954C110.448 94.3954 109.824 95.018 109.824 95.7859C109.824 96.5539 110.448 97.1764 111.218 97.1764Z" fill="#E6E8EC"/>
<path d="M203.395 98.2294C204.665 98.2294 205.694 97.2026 205.694 95.9359C205.694 94.6693 204.665 93.6424 203.395 93.6424C202.124 93.6424 201.095 94.6693 201.095 95.9359C201.095 97.2026 202.124 98.2294 203.395 98.2294Z" fill="#E6E8EC"/>
<path d="M166.256 96.034L155.375 89.4391C155.149 89.3143 154.895 89.2504 154.636 89.2536C154.378 89.2569 154.125 89.3272 153.902 89.4576C153.679 89.5881 153.494 89.7742 153.366 89.9975C153.237 90.2209 153.169 90.4739 153.168 90.7316V103.558C153.169 103.816 153.237 104.069 153.366 104.292C153.494 104.515 153.679 104.701 153.902 104.832C154.125 104.962 154.378 105.033 154.636 105.036C154.895 105.039 155.149 104.975 155.375 104.85L166.256 98.6247C166.486 98.4955 166.678 98.3074 166.812 98.0798C166.945 97.8521 167.016 97.5931 167.016 97.3294C167.016 97.0656 166.945 96.8066 166.812 96.5789C166.678 96.3513 166.486 96.1632 166.256 96.034ZM174.437 97.1447C174.437 94.1206 173.537 91.1645 171.853 88.65C170.168 86.1356 167.773 84.1758 164.972 83.0185C162.17 81.8613 159.087 81.5585 156.113 82.1485C153.139 82.7384 150.407 84.1947 148.263 86.333C146.118 88.4714 144.658 91.1958 144.067 94.1618C143.475 97.1278 143.779 100.202 144.939 102.996C146.1 105.79 148.065 108.178 150.586 109.858C153.107 111.538 156.072 112.435 159.104 112.435C163.171 112.435 167.071 110.824 169.946 107.956C172.821 105.089 174.437 101.2 174.437 97.1447ZM146.74 97.1447C146.74 94.706 147.465 92.3221 148.824 90.2945C150.182 88.2668 152.113 86.6864 154.373 85.7532C156.632 84.8199 159.118 84.5757 161.516 85.0515C163.915 85.5273 166.118 86.7016 167.847 88.426C169.576 90.1504 170.754 92.3474 171.231 94.7392C171.708 97.131 171.463 99.6102 170.527 101.863C169.592 104.116 168.007 106.042 165.973 107.397C163.94 108.752 161.55 109.475 159.104 109.475C157.48 109.475 155.873 109.157 154.372 108.537C152.872 107.918 151.509 107.009 150.361 105.864C149.212 104.719 148.302 103.36 147.68 101.864C147.059 100.368 146.74 98.764 146.74 97.1447Z" fill="#1D7BE9"/>
<path d="M233.212 147.383C233.154 147.03 233.044 146.688 232.885 146.367C233.105 145.62 233.246 145.161 233.246 145.161C233.246 145.161 233.246 145.052 233.212 144.873C233.039 143.816 232.488 142.857 231.661 142.173C230.834 141.49 229.787 141.129 228.713 141.157C226.977 141.189 223.685 141.304 220.034 141.714C220.243 140.257 220.492 138.514 220.752 136.72L221.229 136.772C221.339 136.772 221.455 136.772 221.571 136.789H221.724C222.104 136.813 222.481 136.698 222.783 136.466C222.857 136.394 222.912 136.305 222.943 136.207C222.974 136.109 222.98 136.005 222.961 135.904C222.942 135.802 222.898 135.708 222.833 135.628C222.768 135.547 222.684 135.485 222.589 135.445C223.016 135.487 223.446 135.423 223.842 135.258C224.237 135.092 224.585 134.832 224.854 134.499C225.1 134.156 225.232 133.745 225.232 133.324C225.232 132.903 225.1 132.493 224.854 132.15C224.244 131.285 222.951 130.708 222.881 129.689C222.843 129.112 223.231 128.593 223.535 128.083C224.267 126.808 224.56 125.329 224.368 123.872C224.176 122.416 223.51 121.062 222.473 120.019C222.066 119.616 221.637 119.236 221.189 118.88C220.552 116.549 219.887 114.466 219.69 114.399C219.436 114.316 218.999 113.768 218.582 113.297C218.62 112.901 218.614 112.501 218.562 112.106C218.255 110.086 216.248 108.644 215.143 106.861C214.038 105.078 213.838 102.894 214.121 100.852C214.405 98.8093 215.119 96.8331 215.701 94.8397C216.135 93.3597 216.496 91.7874 216.01 90.319C215.666 89.2718 214.917 88.3659 214.145 87.5149C212.29 85.4694 210.152 83.5539 207.514 82.322C205.68 81.4599 203.671 81.0314 201.644 81.07H201.624L201.306 81.0873L201.08 81.1017L200.855 81.1248L200.614 81.1478C200.369 81.1796 200.126 81.2171 199.883 81.2661C198.12 80.8754 196.321 80.6743 194.516 80.6661H194.282C193.747 80.6345 193.214 80.7598 192.749 81.0267C192.106 81.4738 192.026 82.2758 191.832 82.974C191.484 84.1424 190.749 85.1591 189.749 85.8589C189.057 86.3551 188.244 86.7244 187.585 87.2437C186.925 87.763 186.41 88.5419 186.587 89.3093C186.734 89.9526 187.336 90.4315 188.033 90.7229C187.949 90.8267 187.863 90.9277 187.782 91.0345C187.918 91.0893 188.071 91.1383 188.195 91.1787C189.063 91.4355 189.998 91.4672 190.877 91.7009C191.119 91.7655 191.357 91.8454 191.589 91.9403C190.806 93.4077 190.398 95.0444 190.4 96.7062C190.403 98.5517 190.905 100.362 191.853 101.947C192.801 103.532 194.16 104.833 195.786 105.713C195.786 105.811 195.786 105.906 195.786 106.001C195.876 109.013 195.647 112.677 194.103 113.297C192.558 113.918 191.08 114.619 190.168 115.072L189.879 115.224C189.639 115.115 189.399 114.999 189.164 114.878C189.164 114.878 187.935 114.734 188.149 115.669C188.149 115.669 184.432 115.092 182.392 116.676C180.353 118.259 177.006 121.566 176.349 122.428C175.692 123.291 170.615 125.177 170.615 125.177C170.615 125.177 172.215 122.947 171.524 120.215C171.524 120.215 170.76 116.921 171.124 115.6C171.489 114.278 172.435 109.374 172.435 109.374C172.435 109.374 172.568 104.198 169.736 101.824C166.904 99.4498 164.934 97.4967 166.027 99.8046C166.505 100.863 167.04 101.894 167.63 102.894C167.63 102.894 160.857 104.498 163.261 107.002C165.665 109.507 166.319 109.509 166.319 109.509C166.319 109.509 165.518 115.692 165.37 116.843C165.223 117.994 163.924 126.764 163.924 126.764C163.924 126.764 163.852 130.936 164.581 131.582C164.581 131.582 165.058 134.268 168.075 134.178C168.075 134.178 173.826 134.034 175.429 133.388C177.032 132.742 182.563 129.288 183.147 129.505C183.19 129.522 183.228 129.547 183.26 129.58C183.291 129.606 183.32 129.635 183.347 129.666C182.768 130.944 181.397 135.283 181.981 137.415C181.981 137.415 181.472 143.453 184.53 145.395C184.53 145.395 188.971 152.873 187.296 156.897C187.163 157.223 187.044 157.523 186.934 157.814C184.391 155.711 180.512 153.776 174.587 152.705C173.983 152.596 173.381 152.463 172.785 152.319C171.101 151.912 166.47 151.54 164.265 158.842C163.751 160.539 163.097 162.191 162.31 163.78C161.442 165.532 160.478 168.042 160.458 170.531C160.409 174.022 162.217 177.481 168.778 178.75C168.851 181.347 169.148 184.439 170.04 186.664C171.859 191.193 174.772 198.526 174.772 198.526C174.772 198.526 178.267 206.004 178.487 209.022C178.629 210.998 178.837 213.589 178.692 215.369C178.692 215.478 178.675 215.582 178.663 215.686C178.363 216.009 178.036 216.305 177.685 216.572C177.176 216.86 175.501 218.657 175.501 219.087C175.505 219.499 175.542 219.91 175.611 220.316C174.819 221.006 174.385 221.759 174.385 222.509C174.385 226.409 185.485 229.571 199.177 229.571C212.869 229.571 223.966 226.398 223.966 222.509C223.966 218.949 214.709 216.006 202.68 215.521C205.188 214.523 207.416 213.476 208.339 212.637C208.537 212.483 208.688 212.277 208.775 212.042L206.447 206.65C206.447 206.65 206.264 206.691 205.995 206.769L205.833 206.526C204.798 204.954 202.804 201.821 202.804 200.97C202.804 200.655 202.278 198.645 201.514 195.89V187.047C209.111 188.201 218.9 186.632 218.9 186.632L218.944 186.609H219.135V186.505C220.451 185.778 227.035 181.932 228.988 176.832C229.567 175.343 228.846 173.211 227.414 170.932C228.415 168.454 230.886 162.052 230.64 159.499C230.64 159.364 230.622 159.211 230.622 159.061C230.646 158.8 230.655 158.538 230.651 158.276C230.941 154.526 233.255 147.674 233.255 147.674C233.255 147.674 233.241 147.556 233.212 147.383ZM184.032 130.719C184.559 131.643 185.123 132.822 185.346 133.301C185.346 133.301 184.576 131.888 184.047 130.719H184.032ZM184.582 211.526L184.527 211.546V211.258C184.496 210.505 184.514 209.752 184.582 209.002C184.59 208.597 184.505 208.197 184.333 207.83C183.442 205.596 182.846 203.256 182.56 200.869C182.271 198.353 182.031 195.61 182.181 194.912C182.407 193.841 182.592 185.735 182.311 181.739L186.789 182.743L191.997 193.331C191.997 193.331 195.347 198.5 196.385 202.58V206.665C196.081 207.882 195.55 209.031 194.82 210.052C194.129 210.995 193.455 211.95 192.83 212.937C192.639 213.242 192.428 213.557 192.216 213.851C192.147 213.851 188.725 214.05 188.143 214.691C187.785 215.086 187.16 215.709 187.056 216.335L186.908 216.358C186.237 214.365 184.597 211.526 184.597 211.526H184.582Z" fill="url(#paint0_linear)"/>
<path opacity="0.1" d="M206.611 207.819L205.454 211.569L200.536 215.824L193.304 217.896C193.304 217.896 189.905 216.041 191.062 215.68C191.383 215.579 191.765 215.213 192.153 214.734C191.748 216.205 194.968 214.31 194.968 214.31C194.968 214.31 203.285 208.396 204.152 207.747C204.722 207.37 205.346 207.085 206.004 206.901C206.366 207.464 206.611 207.819 206.611 207.819Z" fill="black"/>
<path d="M206.611 207.819L205.454 211.569L200.536 215.824L193.304 217.896C193.304 217.896 189.905 216.041 191.062 215.68C191.383 215.579 191.765 215.213 192.153 214.734C192.502 214.29 192.824 213.825 193.119 213.343C193.738 212.351 194.409 211.393 195.095 210.458C196.095 209.038 196.723 207.391 196.92 205.667C197.427 201.7 192.292 193.694 192.292 193.694L182.962 174.582L195.98 176.168C195.98 176.168 202.995 200.185 202.995 201.339C202.995 202.205 204.974 205.335 206.004 206.913C206.366 207.464 206.611 207.819 206.611 207.819Z" fill="#FDC2CC"/>
<path d="M199.391 230.024C212.99 230.024 224.015 226.853 224.015 222.942C224.015 219.03 212.99 215.859 199.391 215.859C185.791 215.859 174.766 219.03 174.766 222.942C174.766 226.853 185.791 230.024 199.391 230.024Z" fill="#5F5D7E"/>
<path d="M208.926 212.435C208.838 212.669 208.688 212.876 208.492 213.032C206.704 214.668 200.018 217.1 195.887 218.421C194.805 218.798 193.701 219.111 192.581 219.358C191.568 219.431 189.471 218.781 188.025 217.896C186.578 217.01 187.88 215.752 188.464 215.103C189.049 214.454 192.514 214.261 192.514 214.261C190.851 217.022 194.97 214.598 194.97 214.598C194.97 214.598 203.287 208.684 204.155 208.035C205.023 207.386 206.614 207.025 206.614 207.025L208.926 212.435Z" fill="#1D7BE9"/>
<path opacity="0.3" d="M208.926 212.435C208.838 212.669 208.688 212.876 208.492 213.032C206.704 214.668 200.018 217.1 195.887 218.421C194.805 218.798 193.701 219.111 192.581 219.358C191.568 219.431 189.471 218.781 188.025 217.896C186.578 217.01 187.88 215.752 188.464 215.103C189.049 214.454 192.514 214.261 192.514 214.261C190.851 217.022 194.97 214.598 194.97 214.598C194.97 214.598 203.287 208.684 204.155 208.035C205.023 207.386 206.614 207.025 206.614 207.025L208.926 212.435Z" fill="black"/>
<path opacity="0.1" d="M208.492 213.038C206.704 214.673 200.018 217.105 195.887 218.427C199.631 215.265 205.908 213.612 208.492 213.038Z" fill="black"/>
<path opacity="0.1" d="M199.391 222.076C202.112 222.076 204.317 221.442 204.317 220.66C204.317 219.877 202.112 219.243 199.391 219.243C196.67 219.243 194.464 219.877 194.464 220.66C194.464 221.442 196.67 222.076 199.391 222.076Z" fill="black"/>
<path d="M201.714 183.3H196.651V220.66H201.714V183.3Z" fill="#5F5D7E"/>
<path opacity="0.1" d="M201.714 185.152V189.479C200.701 189.168 198.39 187.855 196.651 186.822V183.297H197.707L201.714 185.152Z" fill="black"/>
<path d="M189.786 167.035C189.786 167.035 206.502 162.745 210.661 159.534C214.821 156.323 231.158 171.431 229 177.132C226.841 182.833 218.984 186.961 218.984 186.961C218.984 186.961 197.256 190.486 193.556 183.133C189.856 175.779 189.786 167.035 189.786 167.035Z" fill="#474157"/>
<path opacity="0.1" d="M189.786 167.035C189.786 167.035 206.502 162.745 210.661 159.534C214.821 156.323 231.158 171.431 229 177.132C226.841 182.833 218.984 186.961 218.984 186.961C218.984 186.961 197.256 190.486 193.556 183.133C189.856 175.779 189.786 167.035 189.786 167.035Z" fill="black"/>
<path d="M188.34 165.304C188.34 165.304 205.055 161.014 209.215 157.803C213.375 154.592 229.711 169.7 227.553 175.401C225.395 181.102 217.538 185.23 217.538 185.23C217.538 185.23 195.809 188.755 192.109 181.402C188.409 174.048 188.34 165.304 188.34 165.304Z" fill="#474157"/>
<path d="M172.837 125.965L171.029 125.31C171.029 125.31 172.62 123.074 171.934 120.334C171.934 120.334 171.173 117.028 171.535 115.689C171.897 114.35 172.837 109.443 172.837 109.443C172.837 109.443 172.97 104.25 170.155 101.87C167.34 99.4902 165.388 97.5428 166.473 99.8508C166.946 100.912 167.477 101.948 168.064 102.952C168.064 102.952 161.338 104.559 163.724 107.075C166.111 109.59 166.762 109.587 166.762 109.587C166.762 109.587 165.966 115.79 165.822 116.944C165.677 118.098 164.375 126.897 164.375 126.897C164.375 126.897 164.303 131.08 165.026 131.729C165.187 132.51 165.629 133.205 166.268 133.684C166.908 134.162 167.701 134.39 168.498 134.326C169.012 134.317 175.151 127.552 172.837 125.965Z" fill="#FDC2CC"/>
<path d="M216.52 112.694V116.733L212.325 118.098L205.179 123.343L203.285 124.733L194.823 121.343L189.471 115.718C189.471 115.718 189.731 115.576 190.183 115.343L190.472 115.19C191.377 114.737 192.804 114.036 194.38 113.41C195.957 112.784 196.142 109.114 196.052 106.091V105.802C195.98 103.682 195.763 101.948 195.763 101.948C195.763 101.948 196.645 101.781 197.93 101.59C201.491 101.062 208.136 100.35 207.552 102.525C207.381 103.265 207.381 104.033 207.552 104.772C207.569 104.853 207.586 104.937 207.607 105.018C208.208 107.64 210.071 110.386 210.071 110.386L215.857 112.464L216.019 112.521L216.52 112.694Z" fill="#FDC2CC"/>
<path d="M216.52 113.921V112.694C216.974 112.616 217.439 112.616 217.894 112.694C218.4 112.839 219.36 114.353 219.794 114.498C220.228 114.642 222.884 124.523 222.595 125.388C222.305 126.254 219.572 145.793 219.572 145.793L214.061 151.851L212.976 135.191L216.52 125.31V113.921Z" fill="#FDC2CC"/>
<path d="M187.952 159.286C187.952 159.286 182.916 160.368 183.555 161.954C184.194 163.541 187.012 163.613 187.012 163.613L187.952 159.286Z" fill="#FDC2CC"/>
<path d="M194.968 127.249L191.134 135.485L186.578 138.803L185.783 133.676C185.783 133.676 184.244 130.287 183.581 129.713C183.549 129.68 183.511 129.655 183.468 129.638C182.89 129.421 177.393 132.883 175.802 133.532C174.211 134.181 168.498 134.326 168.498 134.326L171.029 125.31C171.029 125.31 176.091 123.435 176.742 122.569C177.393 121.704 180.72 118.386 182.745 116.8C184.77 115.213 188.464 115.79 188.464 115.79L188.522 115.813L189.471 116.223L192.219 122.93L194.968 127.249Z" fill="#FDC2CC"/>
<path d="M184.915 209.411C184.847 210.163 184.828 210.919 184.86 211.673C184.88 212.478 184.915 213.162 184.915 213.162L183.251 216.624C183.251 216.624 177.538 218.499 178.478 217.705C178.805 217.431 178.973 216.719 179.057 215.775C179.198 213.992 178.993 211.393 178.851 209.411C178.634 206.382 175.163 198.881 175.163 198.881C175.163 198.881 172.27 191.525 170.462 186.981C168.654 182.437 169.305 174.215 169.305 174.215C169.305 174.215 169.594 168.013 170.896 166.138C172.198 164.262 177.26 163.613 177.26 163.613L179.635 171.469C179.635 171.469 181.588 178.825 182.311 179.907C183.034 180.989 182.817 193.899 182.528 195.269C182.381 195.97 182.629 198.731 182.907 201.247C183.191 203.64 183.782 205.986 184.666 208.228C184.839 208.598 184.924 209.003 184.915 209.411Z" fill="#FDC2CC"/>
<path opacity="0.1" d="M184.915 213.162L183.251 216.624C183.251 216.624 177.538 218.499 178.478 217.705C178.805 217.431 178.973 216.719 179.057 215.775C179.262 215.571 179.482 215.346 179.708 215.115C181.161 213.612 182.923 212.438 184.871 211.673C184.88 212.478 184.915 213.162 184.915 213.162Z" fill="black"/>
<path d="M187.524 218.314C187.526 218.328 187.526 218.341 187.524 218.354C187.235 219.725 182.462 221.6 182.462 221.6C182.462 221.6 179.424 222.105 177.688 222.538C177.555 222.573 177.418 222.586 177.28 222.575C175.941 222.474 175.88 219.904 175.88 219.508C175.88 219.113 177.544 217.273 178.05 216.984C178.622 216.511 179.16 215.997 179.658 215.447C181.143 213.913 182.94 212.716 184.929 211.936C184.929 211.936 187.756 216.892 187.524 218.314Z" fill="#1D7BE9"/>
<path opacity="0.3" d="M187.524 218.314C187.526 218.328 187.526 218.341 187.524 218.354C187.235 219.725 182.462 221.6 182.462 221.6C182.462 221.6 179.424 222.105 177.688 222.538C177.555 222.573 177.418 222.586 177.28 222.575C175.941 222.474 175.88 219.904 175.88 219.508C175.88 219.113 177.544 217.273 178.05 216.984C178.632 216.505 179.177 215.983 179.682 215.423C181.135 213.913 182.897 212.732 184.848 211.962L184.929 211.93C184.929 211.93 187.756 216.892 187.524 218.314Z" fill="black"/>
<path opacity="0.1" d="M187.524 218.314C187.526 218.328 187.526 218.341 187.524 218.355C187.235 219.725 182.462 221.6 182.462 221.6C182.462 221.6 179.424 222.105 177.688 222.538C177.555 222.573 177.418 222.586 177.28 222.575C178.854 221.499 182.67 218.917 183.185 218.859C183.7 218.802 186.237 218.075 187.524 218.314Z" fill="black"/>
<path opacity="0.1" d="M207.618 105.018C205.83 106.486 204.187 106.275 201.691 106.275C199.885 106.275 197.539 106.907 196.061 106.097C196 103.843 195.772 101.948 195.772 101.948C195.772 101.948 208.356 99.568 207.56 102.525C207.378 103.348 207.398 104.204 207.618 105.018Z" fill="black"/>
<path d="M211.385 96.7668C211.385 99.5021 210.295 102.125 208.356 104.06C206.416 105.994 203.785 107.08 201.043 107.08C200.776 107.08 200.51 107.08 200.25 107.052C198.244 106.897 196.327 106.163 194.734 104.939C193.14 103.715 191.94 102.054 191.278 100.159C190.617 98.2648 190.524 96.2191 191.011 94.2728C191.497 92.3264 192.543 90.5639 194.019 89.201C195.495 87.8381 197.337 86.934 199.32 86.5994C201.304 86.2648 203.342 86.5143 205.185 87.3172C207.029 88.1202 208.597 89.4418 209.699 91.1201C210.8 92.7985 211.387 94.7608 211.388 96.7668H211.385Z" fill="#FDC2CC"/>
<path opacity="0.1" d="M192.219 122.936L194.967 127.263L191.134 135.5L186.578 138.817L185.783 133.676C185.783 133.676 184.244 130.287 183.581 129.713C183.772 129.248 183.902 129.035 183.902 129.205C183.902 129.926 185.681 133.172 185.681 133.172C191.178 131.296 189.471 124.012 189.471 124.012C189.471 124.012 188.788 117.521 188.522 115.813L189.471 116.223L192.219 122.936Z" fill="black"/>
<path opacity="0.1" d="M216.52 112.694V116.733L212.325 118.098L205.179 123.343L203.285 124.733L194.823 121.343L189.471 115.718C189.471 115.718 189.731 115.576 190.183 115.343L190.472 115.19C194.195 116.878 198.225 117.498 201.103 117.72C202.427 117.832 203.757 117.862 205.084 117.809C215.982 116.078 216.306 113.453 216.034 112.521L216.52 112.694Z" fill="black"/>
<path d="M219.629 178.104C216.902 179.438 214.101 180.618 211.24 181.638C206.25 183.441 195.257 181.061 193.883 180.701C192.509 180.34 181.95 176.157 177.899 174.57C173.849 172.983 172.837 174.282 171.897 174.137C170.957 173.993 170.306 172.19 170.161 171.685C170.016 171.18 172.765 166.781 174.283 164.545C175.802 162.309 180.358 162.742 181.009 162.598C181.66 162.453 186.217 162.598 186.217 162.598C186.217 162.598 185.927 161.155 187.591 157.116C189.254 153.077 184.842 145.577 184.842 145.577C181.805 143.629 182.311 137.571 182.311 137.571C181.588 134.903 183.902 128.772 183.902 129.493C183.902 130.215 185.681 133.46 185.681 133.46C191.178 131.585 189.471 124.3 189.471 124.3C189.471 124.3 188.676 116.728 188.464 115.79C188.253 114.852 189.471 114.997 189.471 114.997C189.706 115.118 189.944 115.233 190.183 115.343C193.99 117.131 198.156 117.783 201.112 118.008C202.436 118.12 203.765 118.15 205.093 118.098C218.305 115.972 215.964 112.582 215.877 112.461L216.52 112.689C221.293 116.151 219.846 127.618 219.846 127.618L218.059 136.178L216.731 142.553C216.731 142.553 221.432 170.97 221.866 172.412C222.3 173.855 219.629 178.104 219.629 178.104Z" fill="#1D7BE9"/>
<path opacity="0.1" d="M184.408 165.122C184.119 165.338 180.865 172.046 183.251 173.921C185.638 175.796 184.408 165.122 184.408 165.122Z" fill="black"/>
<path opacity="0.1" d="M186.723 166.065C186.795 166.282 193.521 176.956 197.21 177.821L186.723 166.065Z" fill="black"/>
<path opacity="0.1" d="M202.926 81.5979L201.85 81.8258C202.146 81.7167 202.45 81.6271 202.758 81.5575L202.926 81.5979Z" fill="black"/>
<path opacity="0.1" d="M219.132 127.618L217.107 136.172C216.074 135.702 215.124 135.068 214.295 134.294C213.65 133.682 213.071 132.981 212.241 132.58C211.173 132.064 209.886 132.133 208.674 132.09C207.16 132.033 205.66 131.777 204.213 131.328C203.793 131.223 203.399 131.032 203.056 130.768C202.368 130.163 202.414 129.185 202.477 128.331C202.603 126.671 202.618 125.004 202.521 123.343C202.503 123.031 202.48 122.72 202.454 122.408C202.339 121.015 201.963 119.399 200.533 118.802C199.799 118.513 198.922 118.536 198.219 118.187C198.118 118.136 198.021 118.077 197.93 118.008C196.888 117.281 196.793 115.825 196.833 114.598C196.895 112.914 196.954 111.228 197.01 109.541C197.063 108.709 197.044 107.875 196.955 107.046C196.885 106.495 196.733 105.959 196.504 105.453C195.876 104.115 194.568 102.998 194.334 101.585C194.321 101.519 194.312 101.452 194.308 101.386C194.186 100.122 194.985 98.9449 195.265 97.7015C195.827 95.2003 193.941 92.4596 191.166 91.7413C190.298 91.5163 189.367 91.473 188.502 91.2162C188.364 91.175 188.227 91.1269 188.094 91.072C190.188 88.2851 193.779 86.4561 197.855 86.4561C204.314 86.4561 209.553 91.072 209.553 96.7697C209.553 100.001 207.867 102.883 205.231 104.775C205.249 104.856 205.269 104.94 205.292 105.021C205.972 107.643 208.081 110.389 208.081 110.389L214.63 112.467L215.359 112.697C220.769 116.156 219.132 127.618 219.132 127.618Z" fill="black"/>
<path opacity="0.1" d="M222.687 135.904C222.624 135.904 222.563 135.889 222.502 135.878C222.565 135.871 222.629 135.88 222.687 135.904Z" fill="black"/>
<path d="M200.319 81.3123C198.509 80.893 196.658 80.6772 194.8 80.669C194.195 80.669 193.547 80.7007 193.064 81.0325C192.425 81.4796 192.344 82.2874 192.153 82.9855C191.807 84.1514 191.079 85.1675 190.084 85.8705C189.399 86.3696 188.592 86.7359 187.935 87.261C187.278 87.786 186.778 88.565 186.943 89.3324C187.107 90.0998 187.972 90.6912 188.84 90.9364C189.708 91.1816 190.631 91.2249 191.505 91.4614C194.279 92.1798 196.162 94.9233 195.601 97.4188C195.312 98.6622 194.522 99.8392 194.643 101.103C194.785 102.612 196.182 103.774 196.839 105.173C197.438 106.449 197.397 107.879 197.351 109.258L197.175 114.319C197.128 115.651 197.244 117.255 198.563 117.907C199.269 118.254 200.149 118.216 200.878 118.522C202.307 119.116 202.683 120.735 202.799 122.125C202.964 124.096 202.972 126.076 202.822 128.048C202.755 128.913 202.709 129.88 203.4 130.486C203.743 130.751 204.137 130.941 204.557 131.045C206.004 131.495 207.504 131.751 209.018 131.807C210.233 131.853 211.518 131.784 212.585 132.297C213.415 132.698 213.994 133.402 214.639 134.011C216.489 135.699 218.847 136.728 221.345 136.939C221.88 136.985 222.488 136.974 222.861 136.631C223.234 136.287 223.014 135.546 222.482 135.589C222.934 135.665 223.398 135.619 223.827 135.455C224.255 135.292 224.631 135.017 224.918 134.66C225.161 134.315 225.292 133.904 225.292 133.482C225.292 133.06 225.161 132.648 224.918 132.303C224.313 131.438 223.029 130.861 222.959 129.834C222.922 129.257 223.306 128.735 223.607 128.221C224.332 126.942 224.622 125.464 224.432 124.007C224.242 122.55 223.583 121.194 222.554 120.143C221.197 118.744 219.164 117.682 218.689 115.888C218.374 114.688 218.851 113.427 218.669 112.207C218.38 110.187 216.375 108.745 215.273 106.945C214.17 105.145 213.977 102.966 214.257 100.918C214.538 98.8699 215.25 96.8793 215.828 94.8887C216.259 93.403 216.615 91.8249 216.135 90.3507C215.791 89.3035 215.05 88.3948 214.28 87.5379C212.438 85.4868 210.317 83.5654 207.696 82.3451C205.075 81.1248 201.881 80.6516 199.099 81.5546" fill="#474157"/>
<path opacity="0.1" d="M200.319 81.3123C198.509 80.893 196.658 80.6772 194.8 80.669C194.195 80.669 193.547 80.7007 193.064 81.0325C192.425 81.4796 192.344 82.2874 192.153 82.9855C191.807 84.1514 191.079 85.1675 190.084 85.8705C189.399 86.3696 188.592 86.7359 187.935 87.261C187.278 87.786 186.778 88.565 186.943 89.3324C187.107 90.0998 187.972 90.6912 188.84 90.9364C189.708 91.1816 190.631 91.2249 191.505 91.4614C194.279 92.1798 196.162 94.9233 195.601 97.4188C195.312 98.6622 194.522 99.8392 194.643 101.103C194.785 102.612 196.182 103.774 196.839 105.173C197.438 106.449 197.397 107.879 197.351 109.258L197.175 114.319C197.128 115.651 197.244 117.255 198.563 117.907C199.269 118.254 200.149 118.216 200.878 118.522C202.307 119.116 202.683 120.735 202.799 122.125C202.964 124.096 202.972 126.076 202.822 128.048C202.755 128.913 202.709 129.88 203.4 130.486C203.743 130.751 204.137 130.941 204.557 131.045C206.004 131.495 207.504 131.751 209.018 131.807C210.233 131.853 211.518 131.784 212.585 132.297C213.415 132.698 213.994 133.402 214.639 134.011C216.489 135.699 218.847 136.728 221.345 136.939C221.88 136.985 222.488 136.974 222.861 136.631C223.234 136.287 223.014 135.546 222.482 135.589C222.934 135.665 223.398 135.619 223.827 135.455C224.255 135.292 224.631 135.017 224.918 134.66C225.161 134.315 225.292 133.904 225.292 133.482C225.292 133.06 225.161 132.648 224.918 132.303C224.313 131.438 223.029 130.861 222.959 129.834C222.922 129.257 223.306 128.735 223.607 128.221C224.332 126.942 224.622 125.464 224.432 124.007C224.242 122.55 223.583 121.194 222.554 120.143C221.197 118.744 219.164 117.682 218.689 115.888C218.374 114.688 218.851 113.427 218.669 112.207C218.38 110.187 216.375 108.745 215.273 106.945C214.17 105.145 213.977 102.966 214.257 100.918C214.538 98.8699 215.25 96.8793 215.828 94.8887C216.259 93.403 216.615 91.8249 216.135 90.3507C215.791 89.3035 215.05 88.3948 214.28 87.5379C212.438 85.4868 210.317 83.5654 207.696 82.3451C205.075 81.1248 201.881 80.6516 199.099 81.5546" fill="black"/>
<path opacity="0.1" d="M184.842 145.582C184.842 145.582 187.301 146.52 189.905 143.924C192.509 141.327 184.842 145.582 184.842 145.582Z" fill="black"/>
<g opacity="0.1">
<path opacity="0.1" d="M201.407 81.269C201.884 81.1744 202.368 81.1137 202.853 81.0873C202.178 81.0461 201.5 81.0673 200.828 81.1507L201.407 81.269Z" fill="black"/>
<path opacity="0.1" d="M215.912 134.011C215.264 133.402 214.688 132.698 213.855 132.297C212.791 131.784 211.503 131.853 210.288 131.807C208.774 131.752 207.274 131.496 205.827 131.045C205.407 130.941 205.013 130.751 204.67 130.486C203.982 129.88 204.031 128.905 204.092 128.048C204.242 126.076 204.234 124.096 204.069 122.125C203.95 120.735 203.577 119.116 202.145 118.522C201.413 118.216 200.536 118.254 199.83 117.907C198.511 117.255 198.384 115.651 198.439 114.319C198.499 112.632 198.558 110.946 198.615 109.261C198.665 107.879 198.702 106.449 198.103 105.173C197.447 103.774 196.049 102.615 195.908 101.103C195.789 99.8421 196.588 98.6622 196.868 97.4188C197.429 94.9176 195.543 92.1798 192.769 91.4614C191.901 91.2364 190.97 91.1902 190.105 90.9364C189.24 90.6825 188.401 90.1344 188.221 89.3497C188.042 88.565 188.554 87.8034 189.211 87.2754C189.867 86.7475 190.674 86.384 191.363 85.8849C192.358 85.1825 193.085 84.1661 193.429 83C193.622 82.3018 193.718 81.4969 194.34 81.0469C194.696 80.8264 195.106 80.7067 195.526 80.7007C195.268 80.7007 195.011 80.6863 194.756 80.6863C194.152 80.6863 193.504 80.718 193.021 81.0469C192.381 81.4969 192.3 82.3018 192.109 83C191.764 84.1658 191.035 85.1819 190.041 85.8849C189.355 86.384 188.548 86.7504 187.892 87.2754C187.235 87.8005 186.734 88.5794 186.899 89.3497C187.064 90.1199 187.92 90.6796 188.785 90.9364C189.65 91.1931 190.576 91.2249 191.45 91.4614C194.224 92.1798 196.107 94.9233 195.546 97.4188C195.257 98.6622 194.467 99.8421 194.589 101.103C194.73 102.615 196.128 103.774 196.784 105.173C197.383 106.449 197.345 107.879 197.296 109.261C197.237 110.946 197.178 112.632 197.12 114.319C197.074 115.651 197.189 117.255 198.508 117.907C199.214 118.254 200.094 118.216 200.823 118.522C202.252 119.116 202.628 120.735 202.744 122.125C202.909 124.096 202.917 126.076 202.767 128.048C202.7 128.913 202.654 129.88 203.345 130.486C203.688 130.751 204.082 130.941 204.503 131.045C205.949 131.496 207.449 131.752 208.963 131.807C210.178 131.853 211.463 131.784 212.53 132.297C213.361 132.698 213.939 133.402 214.587 134.011C216.435 135.699 218.793 136.729 221.29 136.939C221.613 136.978 221.94 136.965 222.259 136.902C219.891 136.629 217.67 135.617 215.912 134.011Z" fill="black"/>
</g>
<path opacity="0.1" d="M171.029 125.31C171.029 125.31 168.715 127.428 169.053 128.293C169.392 129.159 171.029 125.31 171.029 125.31Z" fill="black"/>
<path d="M173.175 152.529C171.506 152.123 166.904 151.748 164.714 159.072C164.204 160.774 163.555 162.43 162.773 164.026C160.672 168.327 157.959 177.172 169.892 179.12L198.532 185.611C198.532 185.611 213.864 187.486 214.876 186.765C215.889 186.043 215.744 184.457 215.744 184.457C215.744 184.457 198.821 184.457 195.494 179.264C192.167 174.071 192.023 167.003 192.023 167.003C192.023 167.003 192.439 156.089 174.955 152.919C174.376 152.809 173.768 152.674 173.175 152.529Z" fill="#474157"/>
<path opacity="0.1" d="M173.175 152.578C171.506 152.172 166.904 151.797 164.714 159.124C164.204 160.826 163.555 162.482 162.773 164.078C160.672 168.376 157.959 177.221 169.892 179.169L198.532 185.66C198.532 185.66 213.864 187.535 214.876 186.814C215.889 186.092 215.744 184.506 215.744 184.506C215.744 184.506 198.821 184.506 195.494 179.313C192.167 174.12 192.023 167.052 192.023 167.052C192.023 167.052 192.439 156.138 174.955 152.968C174.376 152.858 173.768 152.717 173.175 152.578Z" fill="black"/>
<path d="M233.212 145.066C233.046 144.01 232.501 143.05 231.679 142.365C230.857 141.679 229.813 141.315 228.742 141.339C224.623 141.414 211.943 141.962 206.053 145.799C206.053 145.799 201.569 148.684 200.267 148.684C198.966 148.684 181.319 163.685 207.5 177.1C207.5 177.1 221.53 181.081 227.027 171.734C227.027 171.734 230.932 161.695 230.643 158.218C230.353 154.742 233.246 145.366 233.246 145.366C233.246 145.366 233.241 145.254 233.212 145.066Z" fill="#474157"/>
<path opacity="0.1" d="M233.212 147.593C232.882 145.574 230.955 144.114 228.742 144.152C224.623 144.221 211.943 144.729 206.053 148.268C206.053 148.268 201.569 150.931 200.267 150.931C198.966 150.931 181.319 164.779 207.5 177.164C207.5 177.164 221.53 180.839 227.027 172.21C227.027 172.21 230.932 162.941 230.643 159.733C230.353 156.525 233.246 147.87 233.246 147.87C233.246 147.87 233.241 147.766 233.212 147.593Z" fill="black"/>
<path d="M219.216 177.097H214.587V186.926H219.216V177.097Z" fill="#5F5D7E"/>
<path opacity="0.1" d="M49.9063 137.13C57.1023 137.13 62.9359 136.756 62.9359 136.296C62.9359 135.835 57.1023 135.462 49.9063 135.462C42.7103 135.462 36.8767 135.835 36.8767 136.296C36.8767 136.756 42.7103 137.13 49.9063 137.13Z" fill="black"/>
<path d="M60.8415 104.141C60.5639 104.52 60.3419 104.937 60.1819 105.378C60.1414 105.488 60.1009 105.609 60.0604 105.727C59.9874 105.693 59.9107 105.667 59.8318 105.649C59.4945 105.565 59.1459 105.535 58.7991 105.56C58.7991 105.427 58.8164 105.272 58.8193 105.139C58.8627 103.618 58.6834 101.498 57.2282 102.395C55.8339 103.261 56.829 104.703 57.7287 105.629L57.9601 105.854C57.1386 106.431 56.9824 107.796 56.8464 109.212C56.7104 110.629 55.5041 112.181 54.7028 113.061C54.6218 113.15 54.5494 113.231 54.4771 113.306C54.1535 113.048 53.7786 112.861 53.3771 112.758C52.9756 112.655 52.5568 112.638 52.1483 112.709C52.1165 112.585 52.0789 112.455 52.0413 112.316C51.3933 109.985 50.0481 105.944 48.3326 105.058L48.5582 104.77C49.2873 103.818 50.1088 102.407 48.8967 102.043C47.6846 101.68 47.5747 103.269 47.6412 104.458C47.6412 104.608 47.6643 104.746 47.6759 104.879C47.4337 104.891 47.1965 104.952 46.9786 105.058C46.7608 105.164 46.5669 105.313 46.4088 105.497L46.2208 105.277C45.2372 104.123 43.4349 102.286 42.8882 103.673C42.379 104.966 43.9672 106.642 45.0839 107.614L45.1533 107.675C44.4041 110.712 47.6672 113.194 49.4377 114.267L49.6662 114.405C47.2362 117.261 45.7348 122.613 45.7348 122.613L52.5389 123.824C52.5389 123.824 57.0518 119.944 56.4732 116.298H56.5195C61.0295 115.398 62.0536 110.603 61.3506 107.755L61.4316 107.724C62.2527 107.388 62.9724 106.845 63.5203 106.149C64.7816 104.397 62.1317 102.424 60.8415 104.141Z" fill="#1D7BE9"/>
<path opacity="0.1" d="M60.8415 104.141C60.5639 104.52 60.3419 104.937 60.1819 105.378C60.1414 105.488 60.1009 105.609 60.0604 105.727C59.9874 105.693 59.9107 105.667 59.8318 105.649C59.4945 105.565 59.1459 105.535 58.7991 105.56C58.7991 105.427 58.8164 105.272 58.8193 105.139C58.8627 103.618 58.6834 101.498 57.2282 102.395C55.8339 103.261 56.829 104.703 57.7287 105.629L57.9601 105.854C57.1386 106.431 56.9824 107.796 56.8464 109.212C56.7104 110.629 55.5041 112.181 54.7028 113.061C54.6218 113.15 54.5494 113.231 54.4771 113.306C54.1535 113.048 53.7786 112.861 53.3771 112.758C52.9756 112.655 52.5568 112.638 52.1483 112.709C52.1165 112.585 52.0789 112.455 52.0413 112.316C51.3933 109.985 50.0481 105.944 48.3326 105.058L48.5582 104.77C49.2873 103.818 50.1088 102.407 48.8967 102.043C47.6846 101.68 47.5747 103.269 47.6412 104.458C47.6412 104.608 47.6643 104.746 47.6759 104.879C47.4337 104.891 47.1965 104.952 46.9786 105.058C46.7608 105.164 46.5669 105.313 46.4088 105.497L46.2208 105.277C45.2372 104.123 43.4349 102.286 42.8882 103.673C42.379 104.966 43.9672 106.642 45.0839 107.614L45.1533 107.675C44.4041 110.712 47.6672 113.194 49.4377 114.267L49.6662 114.405C47.2362 117.261 45.7348 122.613 45.7348 122.613L52.5389 123.824C52.5389 123.824 57.0518 119.944 56.4732 116.298H56.5195C61.0295 115.398 62.0536 110.603 61.3506 107.755L61.4316 107.724C62.2527 107.388 62.9724 106.845 63.5203 106.149C64.7816 104.397 62.1317 102.424 60.8415 104.141Z" fill="black"/>
<path d="M47.2969 106.097L46.51 108.419C46.51 108.419 46.0674 108.107 45.5091 107.617C44.3924 106.645 42.8042 104.969 43.3134 103.676C43.8601 102.289 45.6624 104.12 46.646 105.28C47.0336 105.739 47.2969 106.097 47.2969 106.097Z" fill="#1D7BE9"/>
<path d="M48.9748 104.772C48.7327 105.089 48.4739 105.392 48.1995 105.681C48.1317 105.277 48.0844 104.87 48.0578 104.461C47.9913 103.272 48.1185 101.694 49.3133 102.046C50.5081 102.398 49.6923 103.82 48.9748 104.772Z" fill="#1D7BE9"/>
<path d="M59.2389 105.139C59.2157 105.903 59.1405 106.512 59.1405 106.512C58.7902 106.24 58.4587 105.946 58.1482 105.629C57.2486 104.697 56.2534 103.261 57.6478 102.395C59.1 101.498 59.2794 103.618 59.2389 105.139Z" fill="#1D7BE9"/>
<path d="M63.9369 106.14C63.387 106.836 62.6653 107.378 61.8425 107.712C61.6147 107.811 61.3808 107.894 61.1424 107.963L60.2051 106.651C60.3043 106.217 60.4338 105.791 60.5927 105.375C60.7527 104.934 60.9748 104.517 61.2523 104.138C62.5541 102.424 65.1982 104.397 63.9369 106.14Z" fill="#1D7BE9"/>
<path opacity="0.1" d="M46.6374 105.28C47.0337 105.739 47.297 106.097 47.297 106.097L46.5101 108.419C46.5101 108.419 46.0675 108.107 45.5092 107.617C45.6338 106.873 45.942 106.172 46.406 105.577C46.4754 105.471 46.5593 105.37 46.6374 105.28Z" fill="black"/>
<path opacity="0.1" d="M48.9748 104.772C48.7327 105.089 48.4739 105.392 48.1995 105.681C48.1317 105.277 48.0844 104.87 48.0577 104.461C48.3886 104.466 48.7094 104.575 48.9748 104.772Z" fill="black"/>
<path d="M52.8744 113.993L50.8956 114.858C50.8956 114.858 50.4646 114.65 49.8426 114.264C47.7626 112.986 43.5824 109.775 46.3856 105.99C49.1888 102.205 51.5263 108.996 52.4462 112.314C52.7384 113.309 52.8744 113.993 52.8744 113.993Z" fill="#1D7BE9"/>
<path opacity="0.1" d="M58.1453 105.629C58.4322 105.332 58.8227 105.157 59.2359 105.139C59.2127 105.903 59.1375 106.512 59.1375 106.512C58.7872 106.24 58.4557 105.946 58.1453 105.629Z" fill="black"/>
<path opacity="0.1" d="M61.8425 107.712C61.6147 107.811 61.3808 107.894 61.1424 107.963L60.2051 106.651C60.3043 106.217 60.4338 105.791 60.5927 105.375C61.2031 105.733 61.6486 106.607 61.8425 107.712Z" fill="black"/>
<path d="M56.9245 116.289L56.5918 116.347C49.9584 117.354 54.4048 113.785 54.4048 113.785C54.4048 113.785 54.6941 113.511 55.1078 113.061C55.9091 112.181 57.1126 110.637 57.2514 109.212C57.4597 107.069 57.6998 105.058 60.2369 105.649C62.7392 106.229 63.2166 115.034 56.9245 116.289Z" fill="#1D7BE9"/>
<path d="M56.8117 132.756H44.1379V136.08H56.8117V132.756Z" fill="#474157"/>
<path d="M58.6833 121.955H42.1244V133.552H58.6833V121.955Z" fill="#474157"/>
<path opacity="0.1" d="M56.6901 132.756H44.0164V136.08H56.6901V132.756Z" fill="black"/>
<path opacity="0.1" d="M58.6313 121.958H42.0724V133.555H58.6313V121.958Z" fill="black"/>
<path d="M57.6448 132.756H44.9711V136.08H57.6448V132.756Z" fill="#474157"/>
<path opacity="0.1" d="M52.4579 112.328C52.7471 113.32 52.886 114.004 52.886 114.004L50.9073 114.87C50.9073 114.87 50.4762 114.662 49.8542 114.275C50.6295 113.286 51.5032 112.544 52.4579 112.328Z" fill="black"/>
<path opacity="0.1" d="M56.9245 116.289L56.5918 116.347C49.9584 117.354 54.4048 113.785 54.4048 113.785C54.4048 113.785 54.6941 113.511 55.1078 113.061C56.3459 114.059 56.8696 115.164 56.9245 116.289Z" fill="black"/>
<path d="M46.1514 122.613C46.1514 122.613 49.8658 109.342 55.0759 113.439C60.286 117.535 52.9554 123.824 52.9554 123.824L46.1514 122.613Z" fill="#1D7BE9"/>
<path opacity="0.1" d="M48.026 108.485C48.256 108.485 48.4425 108.299 48.4425 108.07C48.4425 107.84 48.256 107.654 48.026 107.654C47.7959 107.654 47.6094 107.84 47.6094 108.07C47.6094 108.299 47.7959 108.485 48.026 108.485Z" fill="black"/>
<path opacity="0.1" d="M47.9913 110.427C48.2214 110.427 48.4079 110.241 48.4079 110.011C48.4079 109.782 48.2214 109.596 47.9913 109.596C47.7612 109.596 47.5747 109.782 47.5747 110.011C47.5747 110.241 47.7612 110.427 47.9913 110.427Z" fill="black"/>
<path opacity="0.1" d="M60.0748 108.866C60.3049 108.866 60.4914 108.68 60.4914 108.451C60.4914 108.221 60.3049 108.035 60.0748 108.035C59.8447 108.035 59.6582 108.221 59.6582 108.451C59.6582 108.68 59.8447 108.866 60.0748 108.866Z" fill="black"/>
<path opacity="0.1" d="M50.3519 118.805C50.5819 118.805 50.7684 118.619 50.7684 118.389C50.7684 118.16 50.5819 117.974 50.3519 117.974C50.1218 117.974 49.9353 118.16 49.9353 118.389C49.9353 118.619 50.1218 118.805 50.3519 118.805Z" fill="black"/>
<path opacity="0.1" d="M59.207 112.089C59.437 112.089 59.6236 111.903 59.6236 111.673C59.6236 111.444 59.437 111.258 59.207 111.258C58.9769 111.258 58.7904 111.444 58.7904 111.673C58.7904 111.903 58.9769 112.089 59.207 112.089Z" fill="black"/>
<path opacity="0.1" d="M54.9024 116.381C55.1325 116.381 55.319 116.195 55.319 115.966C55.319 115.736 55.1325 115.55 54.9024 115.55C54.6723 115.55 54.4858 115.736 54.4858 115.966C54.4858 116.195 54.6723 116.381 54.9024 116.381Z" fill="black"/>
<path opacity="0.1" d="M49.4493 109.316C49.6794 109.316 49.8659 109.13 49.8659 108.901C49.8659 108.671 49.6794 108.485 49.4493 108.485C49.2192 108.485 49.0327 108.671 49.0327 108.901C49.0327 109.13 49.2192 109.316 49.4493 109.316Z" fill="black"/>
<path opacity="0.1" d="M58.9293 110.115C59.1593 110.115 59.3458 109.929 59.3458 109.7C59.3458 109.47 59.1593 109.284 58.9293 109.284C58.6992 109.284 58.5127 109.47 58.5127 109.7C58.5127 109.929 58.6992 110.115 58.9293 110.115Z" fill="black"/>
<path opacity="0.1" d="M57.5059 113.335C57.736 113.335 57.9225 113.149 57.9225 112.919C57.9225 112.69 57.736 112.504 57.5059 112.504C57.2759 112.504 57.0894 112.69 57.0894 112.919C57.0894 113.149 57.2759 113.335 57.5059 113.335Z" fill="black"/>
<path opacity="0.1" d="M53.129 118.493C53.359 118.493 53.5456 118.307 53.5456 118.078C53.5456 117.848 53.359 117.662 53.129 117.662C52.8989 117.662 52.7124 117.848 52.7124 118.078C52.7124 118.307 52.8989 118.493 53.129 118.493Z" fill="black"/>
<path opacity="0.1" d="M52.2264 116.451C52.4565 116.451 52.643 116.265 52.643 116.035C52.643 115.806 52.4565 115.62 52.2264 115.62C51.9963 115.62 51.8098 115.806 51.8098 116.035C51.8098 116.265 51.9963 116.451 52.2264 116.451Z" fill="black"/>
<path opacity="0.1" d="M50.074 111.846C50.3041 111.846 50.4906 111.66 50.4906 111.431C50.4906 111.201 50.3041 111.015 50.074 111.015C49.844 111.015 49.6575 111.201 49.6575 111.431C49.6575 111.66 49.844 111.846 50.074 111.846Z" fill="black"/>
<path opacity="0.1" d="M57.6448 132.756H44.9711V133.971H57.6448V132.756Z" fill="black"/>
<path d="M59.5166 121.955H42.9576V133.552H59.5166V121.955Z" fill="#474157"/>
<path opacity="0.1" d="M53.6844 120.363C53.9145 120.363 54.101 120.177 54.101 119.947C54.101 119.718 53.9145 119.532 53.6844 119.532C53.4543 119.532 53.2678 119.718 53.2678 119.947C53.2678 120.177 53.4543 120.363 53.6844 120.363Z" fill="black"/>
<path opacity="0.1" d="M51.185 120.882C51.4151 120.882 51.6016 120.696 51.6016 120.466C51.6016 120.237 51.4151 120.051 51.185 120.051C50.9549 120.051 50.7684 120.237 50.7684 120.466C50.7684 120.696 50.9549 120.882 51.185 120.882Z" fill="black"/>
<path d="M90.8841 166.276C90.8841 166.276 92.9468 168.968 89.9324 173.03C86.918 177.092 84.4359 180.53 85.431 183.058C85.431 183.058 89.9844 175.511 93.6902 175.407C97.396 175.303 94.9602 170.817 90.8841 166.276Z" fill="#1D7BE9"/>
<path opacity="0.1" d="M90.8842 166.276C91.0645 166.535 91.2067 166.819 91.3066 167.118C94.9198 171.353 96.8464 175.306 93.3721 175.407C90.1349 175.508 86.2527 181.278 85.3212 182.72C85.353 182.833 85.3906 182.945 85.4311 183.052C85.4311 183.052 89.9845 175.505 93.6903 175.401C97.3961 175.297 94.9603 170.817 90.8842 166.276Z" fill="black"/>
<path d="M94.7202 169.709C94.7202 170.655 94.6131 171.423 94.4829 171.423C94.3528 171.423 94.2457 170.655 94.2457 169.709C94.2457 168.763 94.3788 169.207 94.509 169.207C94.6392 169.207 94.7202 168.76 94.7202 169.709Z" fill="#FFD037"/>
<path d="M96.0364 170.84C95.2033 171.293 94.4772 171.567 94.4135 171.452C94.3499 171.336 94.9747 170.875 95.8108 170.422C96.6468 169.969 96.3142 170.298 96.3894 170.422C96.4646 170.546 96.8725 170.387 96.0364 170.84Z" fill="#FFD037"/>
<path d="M79.9808 166.276C79.9808 166.276 77.9182 168.968 80.9326 173.03C83.947 177.092 86.4291 180.53 85.4311 183.058C85.4311 183.058 80.8805 175.511 77.1747 175.407C73.4689 175.303 75.9048 170.817 79.9808 166.276Z" fill="#1D7BE9"/>
<path opacity="0.1" d="M79.9808 166.276C79.8006 166.535 79.6583 166.819 79.5585 167.118C75.9453 171.353 74.0186 175.306 77.493 175.407C80.7301 175.508 84.6124 181.278 85.5439 182.72C85.5124 182.833 85.4747 182.943 85.4311 183.052C85.4311 183.052 80.8805 175.508 77.1747 175.41C73.4689 175.312 75.9048 170.817 79.9808 166.276Z" fill="black"/>
<path d="M76.1449 169.709C76.1449 170.655 76.2519 171.423 76.3821 171.423C76.5123 171.423 76.6193 170.655 76.6193 169.709C76.6193 168.763 76.4863 169.207 76.3561 169.207C76.2259 169.207 76.1449 168.76 76.1449 169.709Z" fill="#FFD037"/>
<path d="M74.8287 170.84C75.6618 171.293 76.3879 171.567 76.4516 171.452C76.5152 171.336 75.8904 170.875 75.0543 170.422C74.2183 169.969 74.551 170.298 74.4757 170.422C74.4005 170.546 73.9926 170.387 74.8287 170.84Z" fill="#FFD037"/>
<path opacity="0.1" d="M85.4311 203.653C97.3499 203.653 107.012 202.174 107.012 200.35C107.012 198.525 97.3499 197.047 85.4311 197.047C73.5122 197.047 63.8501 198.525 63.8501 200.35C63.8501 202.174 73.5122 203.653 85.4311 203.653Z" fill="#1D7BE9"/>
<path d="M96.5397 179.434L96.4356 180.274L96.2909 181.462L96.2331 181.956L96.0855 183.144L96.0248 183.64L95.8801 184.826L94.2427 198.327C94.0952 199.533 92.1194 200.471 89.7385 200.471H81.1408C78.7571 200.471 76.8015 199.533 76.6395 198.327L74.9848 184.826L74.8401 183.64L74.7794 183.144L74.6318 181.956L74.574 181.462L74.4293 180.274L74.3252 179.434C74.2413 178.753 75.3088 178.176 76.6597 178.176H94.208C95.5532 178.176 96.6236 178.753 96.5397 179.434Z" fill="#65617D"/>
<path d="M96.4357 180.274L96.291 181.459H74.5741L74.4294 180.274H96.4357Z" fill="#9D9CB5"/>
<path d="M96.233 181.956L96.0884 183.144H74.7794L74.6318 181.956H96.233Z" fill="#9D9CB5"/>
<path d="M96.0249 183.637L95.8802 184.826H74.9849L74.8402 183.637H96.0249Z" fill="#9D9CB5"/>
</g>
<defs>
<linearGradient id="paint0_linear" x1="196.845" y1="229.557" x2="196.845" y2="80.669" gradientUnits="userSpaceOnUse">
<stop stop-color="#808080" stop-opacity="0.25"/>
<stop offset="0.54" stop-color="#808080" stop-opacity="0.12"/>
<stop offset="1" stop-color="#808080" stop-opacity="0.1"/>
</linearGradient>
<clipPath id="clip0">
<rect width="289" height="230" fill="white" transform="translate(0.657715 0.5)"/>
</clipPath>
</defs>
</svg>
