<svg width="310" height="215" viewBox="0 0 310 215" fill="none" xmlns="http://www.w3.org/2000/svg">
<g clip-path="url(#clip0)">
<path d="M36.3521 186.259C36.3521 186.259 -2.95079 168.101 10.8563 155.509C24.6634 142.917 36.3521 186.259 36.3521 186.259Z" fill="#E6E6E6"/>
<path d="M35.668 190.497C35.668 190.497 17.603 130.927 44.2044 133.776C70.8059 136.625 35.668 190.497 35.668 190.497Z" fill="#E6E6E6"/>
<path d="M22.4966 185.213L23.2548 195.178L23.2668 195.35C23.2661 196.906 23.3445 198.461 23.5015 200.01C24.5305 210.174 28.9535 214.806 34.1226 214.806C39.2917 214.806 43.522 210.174 44.551 200.01C44.7081 198.461 44.7864 196.906 44.7857 195.35L44.7917 195.211L44.7947 195.178L45.556 185.213H22.4966Z" fill="#E6E6E6"/>
<path d="M44.7947 195.178L44.7917 195.211L44.7857 195.35C44.7864 196.906 44.7081 198.461 44.551 200.01H23.5015C23.3445 198.461 23.2661 196.906 23.2669 195.35L23.2548 195.178H44.7947Z" fill="white"/>
<path d="M292.696 192.353C292.696 192.353 262.267 178.295 272.956 168.546C283.646 158.797 292.696 192.353 292.696 192.353Z" fill="#E6E6E6"/>
<path d="M292.166 195.634C292.166 195.634 278.18 149.514 298.775 151.72C319.37 153.925 292.166 195.634 292.166 195.634Z" fill="#E6E6E6"/>
<path d="M281.968 191.544L282.555 199.258L282.565 199.392C282.564 200.597 282.625 201.8 282.746 202.999C283.543 210.868 286.967 214.454 290.969 214.454C294.971 214.454 298.247 210.868 299.043 202.999C299.165 201.8 299.226 200.597 299.225 199.392L299.23 199.284L299.232 199.258L299.821 191.544H281.968Z" fill="#E6E6E6"/>
<path d="M299.232 199.258L299.23 199.284L299.225 199.392C299.226 200.597 299.165 201.8 299.043 202.999H282.746C282.625 201.8 282.564 200.597 282.565 199.392L282.555 199.258H299.232Z" fill="white"/>
<path d="M102.782 64.1286V50.576H100.682V64.1286C100.08 64.3731 99.5811 64.8203 99.2713 65.3934C98.9615 65.9666 98.8599 66.63 98.984 67.2701C99.1081 67.9101 99.4501 68.4869 99.9515 68.9016C100.453 69.3163 101.082 69.5431 101.732 69.5431C102.382 69.5431 103.011 69.3163 103.513 68.9016C104.014 68.4869 104.356 67.9101 104.48 67.2701C104.604 66.63 104.503 65.9666 104.193 65.3934C103.883 64.8203 103.384 64.3731 102.782 64.1286Z" fill="#E6E6E6"/>
<path d="M107.682 200.899H93.333V25.9904H87.7336V200.899H73.3851C71.6847 200.899 70.0009 201.235 68.4299 201.888C66.8589 202.541 65.4315 203.499 64.2291 204.705C63.0267 205.912 62.0729 207.345 61.4222 208.921C60.7715 210.498 60.4365 212.188 60.4365 213.894V213.894H120.63V213.894C120.63 212.188 120.295 210.498 119.644 208.921C118.994 207.345 118.04 205.912 116.838 204.705C115.635 203.499 114.208 202.541 112.637 201.888C111.066 201.235 109.382 200.899 107.682 200.899Z" fill="#E6E6E6"/>
<path d="M60.4656 51.9809H120.601L116.924 5.85125C116.789 4.2606 116.067 2.77802 114.898 1.69517C113.729 0.612325 112.199 0.00760403 110.608 -1.52588e-05H70.4583C68.8677 0.00760365 67.3375 0.612323 66.1688 1.69517C65 2.77801 64.2774 4.26059 64.1429 5.85123L60.4656 51.9809Z" fill="#1D7BE9"/>
<path d="M144.196 132.945C143.631 132.85 143.052 132.869 142.494 133.001C141.936 133.133 141.409 133.375 140.945 133.713C140.481 134.051 140.088 134.478 139.789 134.969C139.491 135.461 139.293 136.007 139.206 136.576L137.513 147.727L143.274 149.26L147.495 138.871C147.74 138.267 147.847 137.616 147.807 136.965C147.767 136.314 147.582 135.681 147.265 135.112C146.949 134.542 146.508 134.052 145.977 133.677C145.446 133.302 144.837 133.052 144.196 132.945Z" fill="#A0616A"/>
<path d="M144.089 147.706C147.285 160.456 145.91 172.118 134.005 181.274C119.727 177.324 110.231 167.794 104.437 153.943C104.076 153.082 103.894 152.156 103.9 151.222C103.906 150.288 104.1 149.365 104.472 148.509C104.843 147.652 105.383 146.88 106.06 146.239C106.737 145.598 107.536 145.101 108.41 144.779C109.722 144.294 111.15 144.223 112.504 144.573C113.858 144.923 115.074 145.679 115.989 146.739L129.999 162.967L136.571 146.604L144.089 147.706Z" fill="#1D7BE9"/>
<path d="M217.245 214.599C204.208 213.904 196.109 209.412 194.148 200.199L196.247 196.336L220.288 207.327C220.895 207.604 221.406 208.057 221.756 208.626C222.106 209.196 222.279 209.857 222.254 210.526C222.229 211.195 222.006 211.841 221.614 212.383C221.221 212.924 220.678 213.336 220.051 213.567L217.245 214.599Z" fill="#E6E6E6"/>
<path d="M207.171 214.691C200.397 214.486 193.883 214.55 187.71 214.969C186.628 215.043 185.559 214.686 184.737 213.975C183.915 213.264 183.406 212.256 183.319 211.17L182.949 206.521L177.699 198.092L182.249 193.526C189.894 201.168 198.279 207.587 208.238 211.403C208.558 211.623 208.799 211.941 208.923 212.31C209.048 212.678 209.051 213.078 208.931 213.448C208.811 213.818 208.574 214.139 208.257 214.363C207.94 214.588 207.559 214.703 207.171 214.691Z" fill="#E6E6E6"/>
<path d="M170.35 181.584C161.7 197.118 153.193 207.589 142.003 213.194C128.236 217.755 118.174 211.713 110.331 199.321L133.079 184.219L136.404 187.555L166.535 164.544C167.271 163.844 168.252 163.465 169.265 163.487C170.279 163.51 171.242 163.933 171.946 164.664L197.647 196.336L194.497 201.604L170.35 181.584Z" fill="#2F2E41"/>
<path d="M178.049 199.848L166.15 181.584L168.95 176.316L184.699 192.823L178.049 199.848Z" fill="#2F2E41"/>
<path d="M109.457 141.545C116.028 141.545 121.355 136.199 121.355 129.603C121.355 123.008 116.028 117.662 109.457 117.662C102.885 117.662 97.5578 123.008 97.5578 129.603C97.5578 136.199 102.885 141.545 109.457 141.545Z" fill="#A0616A"/>
<path d="M112.606 151.73L99.3076 147.165C101.276 144.026 102.138 140.316 101.757 136.628H112.606C111.989 141.987 111.897 147.07 112.606 151.73Z" fill="#A0616A"/>
<path d="M140.953 183.692C138.959 184.513 138.814 187.177 136.929 188.082C127.816 192.458 118.174 196.008 111.556 202.306C96.0904 191.766 81.7553 159.03 100.357 144.706C106.707 148.435 112.379 151.103 112.256 144.706L140.953 183.692Z" fill="#1D7BE9"/>
<path opacity="0.2" d="M132.904 169.643L126.43 167.36L113.656 177.37L107.93 156.682C107.533 155.247 106.889 155.974 105.965 156.971C105.002 156.076 103.804 155.476 102.513 155.243C101.221 155.009 99.8898 155.15 98.6758 155.651C97.4618 156.151 96.4158 156.99 95.6609 158.067C94.9061 159.145 94.474 160.416 94.4157 161.732C93.7345 176.738 98.2436 189.434 109.456 199.145C124.123 195.994 130.347 186.05 132.904 173.155L132.211 172.691C132.466 171.695 132.697 170.679 132.904 169.643Z" fill="black"/>
<path d="M111.058 113.895C114.982 114.795 119.45 116.07 119.7 117.255C123.738 118.276 126.785 120.722 127.407 124.45C127.459 124.773 127.44 125.102 127.351 125.416C127.263 125.73 127.106 126.021 126.894 126.268C126.681 126.515 126.417 126.712 126.12 126.845C125.823 126.979 125.5 127.045 125.175 127.04C122.979 127.011 119.683 126.8 117.507 125.888C111.184 129.977 110.123 140.611 112.884 147.849L108.539 147.449L104.044 134.243L102.895 146.93L92.98 145.615L94.2571 129.436C94.6497 125.622 95.9427 121.958 98.029 118.747C98.2457 118.424 98.4828 118.116 98.7387 117.824C100.247 116.114 102.189 114.845 104.358 114.154C106.527 113.462 108.842 113.372 111.058 113.895Z" fill="#2F2E41"/>
<path d="M133.428 153.986L144.318 166.834L160.653 147.487L149.615 134.047L133.428 153.986Z" fill="#3F3D56"/>
<path d="M157.856 147.93L144.906 137.296C145.642 135.524 149.174 136.115 149.174 136.115L159.311 146.429C159.664 146.788 159.967 147.194 160.211 147.635L157.856 147.93Z" fill="#F2F2F2"/>
<path d="M158.445 147.192L143.729 135.672L127.394 160.484L142.772 170.896C144.244 171.487 145.716 170.453 145.716 170.453L160.726 147.413L158.445 147.192Z" fill="#3F3D56"/>
<path d="M145.564 139.267L145.425 139.462L154.844 146.255L154.983 146.06L145.564 139.267Z" fill="#1D7BE9"/>
<path d="M155.108 148.603L142.747 167.359L142.945 167.491L155.307 148.735L155.108 148.603Z" fill="#1D7BE9"/>
<path d="M131.439 160.534L131.298 160.726L141.303 168.114L141.444 167.921L131.439 160.534Z" fill="#1D7BE9"/>
<path d="M143.778 139.591L130.975 158.052L131.171 158.189L143.974 139.728L143.778 139.591Z" fill="#1D7BE9"/>
<path d="M147.733 135.969L147.634 136.077L159.278 146.803L159.378 146.694L147.733 135.969Z" fill="#B3B3B3"/>
<path d="M146.763 136.06L146.665 136.171L158.836 146.954L158.933 146.843L146.763 136.06Z" fill="#B3B3B3"/>
<path d="M146.002 136.275L145.907 136.389L158.541 146.958L158.635 146.844L146.002 136.275Z" fill="#B3B3B3"/>
<path d="M139.306 157.758C138.835 157.429 138.304 157.197 137.744 157.077C137.183 156.956 136.604 156.948 136.04 157.053C135.476 157.159 134.939 157.376 134.46 157.691C133.98 158.007 133.568 158.415 133.247 158.892L126.955 168.238L131.504 172.101L139.755 164.531C140.234 164.091 140.609 163.548 140.851 162.943C141.093 162.338 141.196 161.686 141.153 161.036C141.11 160.385 140.922 159.753 140.602 159.185C140.282 158.618 139.839 158.13 139.306 157.758Z" fill="#A0616A"/>
<path d="M132.904 171.048C130.347 183.942 124.123 193.887 109.457 197.038C98.2436 187.327 93.7345 174.631 94.4157 159.625C94.4581 158.692 94.6884 157.777 95.0927 156.936C95.4971 156.094 96.0671 155.344 96.7684 154.73C97.4697 154.116 98.2876 153.651 99.1729 153.363C100.058 153.075 100.993 152.97 101.919 153.054C103.312 153.181 104.633 153.731 105.707 154.63C106.78 155.529 107.556 156.734 107.93 158.086L113.656 178.775L126.583 166.818L132.904 171.048Z" fill="#1D7BE9"/>
<path d="M309.204 215H0.342316V214.234H309.342L309.204 215Z" fill="#3F3D56"/>
<path d="M161.776 32.1393C161.59 32.1394 161.412 32.2135 161.281 32.3452C161.15 32.4769 161.076 32.6555 161.076 32.8417V87.6324C161.076 87.8186 161.15 87.9972 161.281 88.1289C161.412 88.2606 161.59 88.3346 161.776 88.3348H207.271C207.457 88.3346 207.635 88.2605 207.766 88.1289C207.897 87.9972 207.971 87.8186 207.971 87.6324V32.8417C207.971 32.6555 207.897 32.4769 207.766 32.3452C207.635 32.2135 207.457 32.1395 207.271 32.1393H161.776Z" fill="#E6E6E6"/>
<path d="M166.5 82.8909H202.547V37.5832H166.5V82.8909Z" fill="white"/>
<path d="M237.519 46.5394C237.409 46.5395 237.302 46.5837 237.224 46.6623C237.146 46.741 237.102 46.8475 237.102 46.9587V74.2178C237.102 74.329 237.146 74.4356 237.224 74.5142C237.302 74.5928 237.409 74.637 237.519 74.6371H270.113C270.224 74.637 270.33 74.5928 270.408 74.5142C270.487 74.4355 270.531 74.329 270.531 74.2178V46.9588C270.531 46.8476 270.487 46.741 270.408 46.6624C270.33 46.5837 270.224 46.5395 270.113 46.5394L237.519 46.5394Z" fill="#E6E6E6"/>
<path d="M240.34 49.7895V71.387H267.292V49.7895H240.34Z" fill="white"/>
<path d="M190.888 36.0027H178.159C177.851 36.0039 177.549 35.9235 177.282 35.7697C177.015 35.6159 176.794 35.394 176.64 35.1266C176.486 34.8593 176.406 34.5559 176.406 34.2471C176.407 33.9384 176.489 33.6353 176.644 33.3685L183.008 22.305C183.013 22.2959 183.019 22.2869 183.024 22.2778C183.163 22.0424 183.356 21.8435 183.586 21.6971C183.816 21.5507 184.078 21.461 184.349 21.4354L184.358 21.4345C184.413 21.4295 184.468 21.427 184.524 21.427C184.831 21.4251 185.134 21.5055 185.4 21.6598C185.666 21.8141 185.887 22.0368 186.039 22.305L192.404 33.3685C192.557 33.6355 192.638 33.9383 192.638 34.2466C192.638 34.5548 192.557 34.8576 192.403 35.1246C192.25 35.3915 192.029 35.6132 191.763 35.7674C191.497 35.9215 191.195 36.0027 190.888 36.0027ZM177.808 34.2449C177.808 34.3072 177.825 34.3683 177.856 34.4222C177.886 34.476 177.93 34.5207 177.983 34.5516C178.037 34.5825 178.097 34.5984 178.159 34.5978H190.888C190.95 34.5985 191.01 34.5825 191.064 34.5516C191.117 34.5207 191.161 34.476 191.191 34.4222C191.222 34.3683 191.239 34.3073 191.239 34.245C191.239 34.1838 191.222 34.1238 191.191 34.0712L184.827 23.0075C184.796 22.9541 184.752 22.9097 184.699 22.8789C184.645 22.8481 184.585 22.8319 184.524 22.8319C184.462 22.8319 184.402 22.8481 184.349 22.8789C184.295 22.9097 184.251 22.9541 184.22 23.0075L177.856 34.071C177.825 34.1236 177.808 34.1836 177.808 34.2449Z" fill="#E6E6E6"/>
<path d="M184.524 24.7636C185.103 24.7636 185.573 24.2918 185.573 23.7099C185.573 23.128 185.103 22.6562 184.524 22.6562C183.944 22.6562 183.474 23.128 183.474 23.7099C183.474 24.2918 183.944 24.7636 184.524 24.7636Z" fill="#E6E6E6"/>
<path d="M257.267 47.4174H250.365C250.199 47.4181 250.035 47.3745 249.89 47.2911C249.745 47.2077 249.625 47.0874 249.542 46.9425C249.459 46.7975 249.415 46.633 249.415 46.4656C249.415 46.2982 249.46 46.1339 249.544 45.9893L252.995 39.991L253.003 39.9762C253.079 39.8486 253.183 39.7407 253.308 39.6614C253.433 39.582 253.574 39.5334 253.722 39.5195L253.727 39.519C253.756 39.5163 253.786 39.5149 253.816 39.5149C253.983 39.5139 254.147 39.5575 254.291 39.6412C254.436 39.7248 254.555 39.8456 254.638 39.991L258.088 45.9893C258.172 46.134 258.215 46.2982 258.215 46.4653C258.215 46.6324 258.172 46.7966 258.088 46.9413C258.005 47.0861 257.885 47.2063 257.741 47.2898C257.597 47.3734 257.433 47.4174 257.267 47.4174ZM250.175 46.4644C250.175 46.4982 250.184 46.5313 250.201 46.5605C250.217 46.5897 250.241 46.6139 250.27 46.6307C250.299 46.6474 250.332 46.6561 250.365 46.6557H257.267C257.3 46.6561 257.333 46.6474 257.362 46.6307C257.391 46.614 257.415 46.5897 257.431 46.5605C257.448 46.5313 257.457 46.4982 257.457 46.4645C257.457 46.4313 257.448 46.3988 257.431 46.3702L253.98 40.3718C253.964 40.3429 253.94 40.3188 253.911 40.3021C253.882 40.2854 253.849 40.2766 253.816 40.2766C253.783 40.2766 253.75 40.2854 253.721 40.3021C253.692 40.3188 253.668 40.3429 253.652 40.3718L250.201 46.3701C250.184 46.3986 250.175 46.4312 250.175 46.4644Z" fill="#E6E6E6"/>
<path d="M253.816 41.3239C254.13 41.3239 254.385 41.0682 254.385 40.7527C254.385 40.4372 254.13 40.1814 253.816 40.1814C253.502 40.1814 253.247 40.4372 253.247 40.7527C253.247 41.0682 253.502 41.3239 253.816 41.3239Z" fill="#E6E6E6"/>
<path d="M166.913 65.6392C167.416 64.4803 168.149 63.4364 169.067 62.5712C169.985 61.706 171.07 61.0377 172.254 60.6071C173.485 60.13 174.805 59.9256 176.122 60.0079C177.44 60.0902 178.724 60.4572 179.887 61.0838C182.618 62.5384 184.802 64.8254 187.575 66.2175C190.272 67.5584 193.24 68.26 196.249 68.2683C199.657 68.295 203.011 67.4211 205.976 65.7345C206.091 65.6615 206.174 65.5465 206.206 65.4137C206.238 65.2808 206.218 65.1406 206.149 65.0226C206.08 64.9046 205.969 64.8179 205.837 64.781C205.706 64.7441 205.566 64.7597 205.446 64.8247C202.759 66.3357 199.742 67.1561 196.662 67.2128C193.583 67.2695 190.537 66.5608 187.797 65.1496C185.015 63.6854 182.81 61.3211 179.975 59.9492C178.772 59.3631 177.465 59.0226 176.129 58.9474C174.794 58.8721 173.457 59.0637 172.196 59.5109C170.794 59.9829 169.507 60.7483 168.422 61.7565C167.337 62.7647 166.477 63.9926 165.9 65.3591C165.646 65.9867 166.661 66.2599 166.913 65.6392V65.6392Z" fill="#E6E6E6"/>
<path d="M166.083 75.4884C171.91 74.183 177.953 74.204 183.77 75.5499C188.938 76.7526 194.273 78.9164 199.601 77.3027C201.981 76.5817 204.162 75.1397 205.385 72.9205C205.713 72.3266 204.806 71.7945 204.479 72.3887C202.176 76.5671 196.782 77.2721 192.522 76.5865C189.675 76.1284 186.932 75.2099 184.13 74.5525C178.106 73.1352 171.84 73.1077 165.804 74.4724C165.145 74.6201 165.424 75.6361 166.083 75.4884Z" fill="#E6E6E6"/>
<path d="M165.705 51.9359C171.291 50.9823 177.013 51.1866 182.518 52.5362C187.661 53.8008 192.687 56.6897 198.125 56.1908C200.643 55.9598 203.135 55.0306 204.845 53.0977C205.293 52.5922 204.553 51.8444 204.103 52.3526C202.628 54.0201 200.503 54.8843 198.322 55.1177C195.809 55.3868 193.339 54.8642 190.947 54.1217C188.299 53.2998 185.727 52.2586 183.035 51.5793C177.275 50.1279 171.277 49.9033 165.426 50.9199C164.761 51.0338 165.043 52.0494 165.705 51.9359Z" fill="#E6E6E6"/>
<path d="M245.033 49.4337C247.447 51.9143 249.112 55.0299 249.836 58.4203C250.392 61.1174 250.329 63.9062 249.652 66.5753C248.975 69.2444 247.701 71.7238 245.927 73.8254C245.492 74.3394 246.232 75.0882 246.67 74.5704C249.086 71.713 250.63 68.2161 251.114 64.4998C251.467 61.6311 251.17 58.7194 250.246 55.9818C249.322 53.2442 247.794 50.7512 245.776 48.6886C245.302 48.2036 244.56 48.9489 245.033 49.4337Z" fill="#E6E6E6"/>
<path d="M260.785 47.1852C257.568 49.5536 255.767 53.3763 255.513 57.3303C255.249 61.4444 256.813 65.4175 259.33 68.6117C260.799 70.451 262.554 72.0406 264.527 73.3194C265.094 73.6918 265.62 72.7798 265.057 72.4096C261.842 70.2989 259.092 67.3007 257.631 63.7025C256.919 61.9934 256.55 60.1601 256.545 58.3076C256.54 56.4551 256.899 54.6198 257.601 52.9067C258.388 50.998 259.67 49.3362 261.315 48.095C261.855 47.6981 261.331 46.7834 260.785 47.1852Z" fill="#E6E6E6"/>
<path d="M186.973 57.7785C189.679 57.7785 191.873 55.577 191.873 52.8614C191.873 50.1457 189.679 47.9443 186.973 47.9443C184.267 47.9443 182.074 50.1457 182.074 52.8614C182.074 55.577 184.267 57.7785 186.973 57.7785Z" fill="#E6E6E6"/>
</g>
<defs>
<clipPath id="clip0">
<rect width="309" height="215" fill="white" transform="translate(0.342316)"/>
</clipPath>
</defs>
</svg>
